<svg width="588" height="90" viewBox="0 0 588 90" fill="none" xmlns="http://www.w3.org/2000/svg">
<path d="M0 27.2352H14.1882L15.289 33.5488C17.246 31.3205 19.6107 29.5873 22.3831 28.3494C25.2371 27.0289 28.2949 26.3686 31.5566 26.3686C36.3675 26.3686 40.4446 27.4003 43.7878 29.4635C47.2125 31.5268 49.8219 34.5392 51.6158 38.5007C53.4912 42.3796 54.429 47.2077 54.429 52.9849V89.1334H38.6507V55.0894C38.6507 50.3026 37.713 46.7125 35.8375 44.3191C33.962 41.9257 31.1489 40.729 27.3979 40.729C23.5655 40.729 20.63 41.967 18.5915 44.4429C16.6345 46.8363 15.656 50.4264 15.656 55.2132V89.1334H0V27.2352Z" fill="#606060"/>
<path d="M122.257 89.1334H107.946L106.968 82.696C104.929 85.0069 102.483 86.8226 99.6291 88.1431C96.8567 89.381 93.8804 90 90.7003 90C85.9709 90 81.8938 88.9684 78.4691 86.9051C75.0443 84.8418 72.3942 81.8707 70.5188 77.9917C68.6433 74.0303 67.7056 69.1609 67.7056 63.3838V27.2352H83.4839V61.403C83.4839 66.1073 84.3808 69.6974 86.1747 72.1733C88.0502 74.5667 90.9041 75.7634 94.7366 75.7634C98.569 75.7634 101.505 74.5254 103.543 72.0495C105.582 69.5736 106.601 65.9835 106.601 61.2792V27.2352H122.257V89.1334Z" fill="#606060"/>
<path d="M137.243 0H152.899V89.1334H137.243V0Z" fill="#606060"/>
<path d="M167.94 0H183.596V89.1334H167.94V0Z" fill="#606060"/>
<path d="M198.638 27.2352H212.826L213.927 35.1582C215.639 33.0124 217.556 31.2792 219.676 29.9587C221.877 28.5557 224.283 27.6066 226.892 27.1114C229.501 26.5337 232.233 26.575 235.087 27.2352V42.0908C232.885 41.348 230.561 41.1417 228.115 41.4718C225.751 41.8019 223.508 42.6685 221.388 44.0715C219.35 45.4746 217.637 47.4966 216.251 50.1375C214.946 52.696 214.294 55.956 214.294 59.9175V89.1334H198.638V27.2352Z" fill="#606060"/>
<path d="M271.673 90C265.557 90 260.175 88.6382 255.528 85.9147C250.88 83.1912 247.251 79.3948 244.642 74.5254C242.114 69.6561 240.85 64.044 240.85 57.6891C240.85 51.5818 242.114 46.1761 244.642 41.4718C247.251 36.7675 250.798 33.0949 255.283 30.4539C259.768 27.7304 264.905 26.3686 270.694 26.3686C276.565 26.3686 281.743 27.6479 286.228 30.2063C290.713 32.7648 294.178 36.3549 296.624 40.9766C299.152 45.5158 300.416 50.8391 300.416 56.9464C300.416 57.8542 300.335 58.8858 300.172 60.0413C300.09 61.1142 299.968 62.2696 299.805 63.5076H257.729C258.055 66.1486 258.871 68.4182 260.175 70.3164C261.562 72.132 263.233 73.5763 265.19 74.6492C267.229 75.6396 269.512 76.1348 272.04 76.1348C275.057 76.1348 277.748 75.5158 280.112 74.2779C282.559 73.0399 284.312 71.348 285.372 69.2022L299.193 73.4113C296.747 78.6933 293.118 82.7785 288.307 85.6671C283.496 88.5557 277.951 90 271.673 90ZM283.292 51.9945C283.211 49.6836 282.599 47.6204 281.458 45.8047C280.316 43.9065 278.808 42.4622 276.932 41.4718C275.057 40.3989 272.977 39.8624 270.694 39.8624C268.656 39.8624 266.74 40.3989 264.946 41.4718C263.152 42.4622 261.602 43.8652 260.298 45.6809C259.075 47.4966 258.259 49.6011 257.851 51.9945H283.292Z" fill="#606060"/>
<path d="M312.35 27.2352H326.538L327.639 33.5488C329.596 31.3205 331.961 29.5873 334.733 28.3494C337.587 27.0289 340.645 26.3686 343.907 26.3686C348.718 26.3686 352.795 27.4003 356.138 29.4635C359.563 31.5268 362.172 34.5392 363.966 38.5007C365.841 42.3796 366.779 47.2077 366.779 52.9849V89.1334H351.001V55.0894C351.001 50.3026 350.063 46.7125 348.188 44.3191C346.312 41.9257 343.499 40.729 339.748 40.729C335.916 40.729 332.98 41.967 330.942 44.4429C328.985 46.8363 328.006 50.4264 328.006 55.2132V89.1334H312.35V27.2352Z" fill="#606060"/>
<path d="M425.311 36.5199L423.354 36.7675V0H439.01V89.1334H424.822L423.844 81.458C421.887 83.7689 419.277 85.7909 416.016 87.5241C412.835 89.1747 409.125 90 404.885 90C399.585 90 394.896 88.6795 390.819 86.0385C386.742 83.3975 383.562 79.7249 381.279 75.0206C378.996 70.2338 377.854 64.6217 377.854 58.1843C377.854 51.7469 378.996 46.1348 381.279 41.348C383.562 36.5612 386.742 32.8886 390.819 30.3301C394.896 27.6891 399.585 26.3686 404.885 26.3686C409.696 26.3686 413.814 27.359 417.239 29.3398C420.745 31.3205 423.436 33.7139 425.311 36.5199ZM394.611 58.1843C394.611 63.3838 395.916 67.5928 398.525 70.8116C401.216 73.9477 404.681 75.5158 408.921 75.5158C411.531 75.5158 413.895 74.8556 416.016 73.5351C418.217 72.132 419.97 70.1513 421.275 67.5928C422.661 65.0344 423.354 61.8982 423.354 58.1843C423.354 54.4704 422.661 51.3342 421.275 48.7758C419.97 46.2173 418.217 44.2779 416.016 42.9574C413.895 41.5543 411.531 40.8528 408.921 40.8528C404.681 40.8528 401.216 42.4622 398.525 45.6809C395.916 48.8171 394.611 52.9849 394.611 58.1843Z" fill="#606060"/>
<path d="M481.778 90C475.662 90 470.28 88.6382 465.632 85.9147C460.984 83.1912 457.356 79.3948 454.746 74.5254C452.219 69.6561 450.955 64.044 450.955 57.6891C450.955 51.5818 452.219 46.1761 454.746 41.4718C457.356 36.7675 460.903 33.0949 465.388 30.4539C469.872 27.7304 475.01 26.3686 480.799 26.3686C486.67 26.3686 491.848 27.6479 496.333 30.2063C500.817 32.7648 504.283 36.3549 506.729 40.9766C509.257 45.5158 510.521 50.8391 510.521 56.9464C510.521 57.8542 510.439 58.8858 510.276 60.0413C510.195 61.1142 510.072 62.2696 509.909 63.5076H467.834C468.16 66.1486 468.975 68.4182 470.28 70.3164C471.666 72.132 473.338 73.5763 475.295 74.6492C477.334 75.6396 479.617 76.1348 482.144 76.1348C485.162 76.1348 487.852 75.5158 490.217 74.2779C492.663 73.0399 494.416 71.348 495.477 69.2022L509.298 73.4113C506.852 78.6933 503.223 82.7785 498.412 85.6671C493.601 88.5557 488.056 90 481.778 90ZM493.397 51.9945C493.316 49.6836 492.704 47.6204 491.562 45.8047C490.421 43.9065 488.912 42.4622 487.037 41.4718C485.161 40.3989 483.082 39.8624 480.799 39.8624C478.76 39.8624 476.844 40.3989 475.05 41.4718C473.256 42.4622 471.707 43.8652 470.402 45.6809C469.179 47.4966 468.364 49.6011 467.956 51.9945H493.397Z" fill="#606060"/>
<path d="M522.455 27.2352H536.643L537.744 35.1582C539.456 33.0124 541.373 31.2792 543.493 29.9587C545.694 28.5557 548.1 27.6066 550.709 27.1114C553.318 26.5337 556.05 26.575 558.904 27.2352V42.0908C556.702 41.348 554.378 41.1417 551.932 41.4718C549.567 41.8019 547.325 42.6685 545.205 44.0715C543.166 45.4746 541.454 47.4966 540.068 50.1375C538.763 52.696 538.111 55.956 538.111 59.9175V89.1334H522.455V27.2352Z" fill="#606060"/>
<path d="M577.848 90C574.831 90 572.344 89.0509 570.387 87.1527C568.512 85.1719 567.574 82.8198 567.574 80.0963C567.574 77.2902 568.512 74.9381 570.387 73.0399C572.344 71.0591 574.831 70.0688 577.848 70.0688C580.784 70.0688 583.189 71.0591 585.065 73.0399C587.022 74.9381 588 77.2902 588 80.0963C588 82.8198 587.022 85.1719 585.065 87.1527C583.189 89.0509 580.784 90 577.848 90Z" fill="#E04FD9"/>
</svg>
