<svg width="126" height="20" viewBox="0 0 126 20" fill="none" xmlns="http://www.w3.org/2000/svg">
<path d="M0.612 6H3.628L3.862 7.326C4.278 6.858 4.78067 6.494 5.37 6.234C5.97667 5.95667 6.62667 5.818 7.32 5.818C8.34267 5.818 9.20933 6.03467 9.92 6.468C10.648 6.90133 11.2027 7.534 11.584 8.366C11.9827 9.18067 12.182 10.1947 12.182 11.408V19H8.828V11.85C8.828 10.8447 8.62867 10.0907 8.23 9.588C7.83133 9.08533 7.23333 8.834 6.436 8.834C5.62133 8.834 4.99733 9.094 4.564 9.614C4.148 10.1167 3.94 10.8707 3.94 11.876V19H0.612V6ZM26.6002 19H23.5582L23.3502 17.648C22.9169 18.1333 22.3969 18.5147 21.7902 18.792C21.2009 19.052 20.5682 19.182 19.8922 19.182C18.8869 19.182 18.0202 18.9653 17.2922 18.532C16.5642 18.0987 16.0009 17.4747 15.6022 16.66C15.2036 15.828 15.0042 14.8053 15.0042 13.592V6H18.3582V13.176C18.3582 14.164 18.5489 14.918 18.9302 15.438C19.3289 15.9407 19.9356 16.192 20.7502 16.192C21.5649 16.192 22.1889 15.932 22.6222 15.412C23.0556 14.892 23.2722 14.138 23.2722 13.15V6H26.6002V19ZM29.7858 0.279999H33.1138V19H29.7858V0.279999ZM36.3112 0.279999H39.6392V19H36.3112V0.279999ZM42.8366 6H45.8526L46.0866 7.664C46.4506 7.21333 46.8579 6.84933 47.3086 6.572C47.7766 6.27733 48.2879 6.078 48.8426 5.974C49.3973 5.85267 49.9779 5.86133 50.5846 6V9.12C50.1166 8.964 49.6226 8.92067 49.1026 8.99C48.5999 9.05933 48.1233 9.24133 47.6726 9.536C47.2393 9.83067 46.8753 10.2553 46.5806 10.81C46.3033 11.3473 46.1646 12.032 46.1646 12.864V19H42.8366V6ZM58.3617 19.182C57.0617 19.182 55.9177 18.896 54.9297 18.324C53.9417 17.752 53.1703 16.9547 52.6157 15.932C52.0783 14.9093 51.8097 13.7307 51.8097 12.396C51.8097 11.1133 52.0783 9.978 52.6157 8.99C53.1703 8.002 53.9243 7.23067 54.8777 6.676C55.831 6.104 56.923 5.818 58.1537 5.818C59.4017 5.818 60.5023 6.08667 61.4557 6.624C62.409 7.16133 63.1457 7.91533 63.6657 8.886C64.203 9.83933 64.4717 10.9573 64.4717 12.24C64.4717 12.4307 64.4543 12.6473 64.4197 12.89C64.4023 13.1153 64.3763 13.358 64.3417 13.618H55.3977C55.467 14.1727 55.6403 14.6493 55.9177 15.048C56.2123 15.4293 56.5677 15.7327 56.9837 15.958C57.417 16.166 57.9023 16.27 58.4397 16.27C59.081 16.27 59.653 16.14 60.1557 15.88C60.6757 15.62 61.0483 15.2647 61.2737 14.814L64.2117 15.698C63.6917 16.8073 62.9203 17.6653 61.8977 18.272C60.875 18.8787 59.6963 19.182 58.3617 19.182ZM60.8317 11.2C60.8143 10.7147 60.6843 10.2813 60.4417 9.9C60.199 9.50133 59.8783 9.198 59.4797 8.99C59.081 8.76467 58.639 8.652 58.1537 8.652C57.7203 8.652 57.313 8.76467 56.9317 8.99C56.5503 9.198 56.221 9.49267 55.9437 9.874C55.6837 10.2553 55.5103 10.6973 55.4237 11.2H60.8317ZM67.0085 6H70.0245L70.2585 7.326C70.6745 6.858 71.1772 6.494 71.7665 6.234C72.3732 5.95667 73.0232 5.818 73.7165 5.818C74.7392 5.818 75.6058 6.03467 76.3165 6.468C77.0445 6.90133 77.5992 7.534 77.9805 8.366C78.3792 9.18067 78.5785 10.1947 78.5785 11.408V19H75.2245V11.85C75.2245 10.8447 75.0252 10.0907 74.6265 9.588C74.2278 9.08533 73.6298 8.834 72.8325 8.834C72.0178 8.834 71.3938 9.094 70.9605 9.614C70.5445 10.1167 70.3365 10.8707 70.3365 11.876V19H67.0085V6ZM91.0207 7.95L90.6047 8.002V0.279999H93.9327V19H90.9167L90.7087 17.388C90.2927 17.8733 89.738 18.298 89.0447 18.662C88.3687 19.0087 87.58 19.182 86.6787 19.182C85.552 19.182 84.5554 18.9047 83.6887 18.35C82.822 17.7953 82.146 17.024 81.6607 16.036C81.1754 15.0307 80.9327 13.852 80.9327 12.5C80.9327 11.148 81.1754 9.96933 81.6607 8.964C82.146 7.95867 82.822 7.18733 83.6887 6.65C84.5554 6.09533 85.552 5.818 86.6787 5.818C87.7014 5.818 88.5767 6.026 89.3047 6.442C90.05 6.858 90.622 7.36067 91.0207 7.95ZM84.4947 12.5C84.4947 13.592 84.772 14.476 85.3267 15.152C85.8987 15.8107 86.6354 16.14 87.5367 16.14C88.0914 16.14 88.594 16.0013 89.0447 15.724C89.5127 15.4293 89.8854 15.0133 90.1627 14.476C90.4574 13.9387 90.6047 13.28 90.6047 12.5C90.6047 11.72 90.4574 11.0613 90.1627 10.524C89.8854 9.98667 89.5127 9.57933 89.0447 9.302C88.594 9.00733 88.0914 8.86 87.5367 8.86C86.6354 8.86 85.8987 9.198 85.3267 9.874C84.772 10.5327 84.4947 11.408 84.4947 12.5ZM103.024 19.182C101.724 19.182 100.58 18.896 99.5918 18.324C98.6038 17.752 97.8324 16.9547 97.2778 15.932C96.7404 14.9093 96.4718 13.7307 96.4718 12.396C96.4718 11.1133 96.7404 9.978 97.2778 8.99C97.8324 8.002 98.5864 7.23067 99.5398 6.676C100.493 6.104 101.585 5.818 102.816 5.818C104.064 5.818 105.164 6.08667 106.118 6.624C107.071 7.16133 107.808 7.91533 108.328 8.886C108.865 9.83933 109.134 10.9573 109.134 12.24C109.134 12.4307 109.116 12.6473 109.082 12.89C109.064 13.1153 109.038 13.358 109.004 13.618H100.06C100.129 14.1727 100.302 14.6493 100.58 15.048C100.874 15.4293 101.23 15.7327 101.646 15.958C102.079 16.166 102.564 16.27 103.102 16.27C103.743 16.27 104.315 16.14 104.818 15.88C105.338 15.62 105.71 15.2647 105.936 14.814L108.874 15.698C108.354 16.8073 107.582 17.6653 106.56 18.272C105.537 18.8787 104.358 19.182 103.024 19.182ZM105.494 11.2C105.476 10.7147 105.346 10.2813 105.104 9.9C104.861 9.50133 104.54 9.198 104.142 8.99C103.743 8.76467 103.301 8.652 102.816 8.652C102.382 8.652 101.975 8.76467 101.594 8.99C101.212 9.198 100.883 9.49267 100.606 9.874C100.346 10.2553 100.172 10.6973 100.086 11.2H105.494ZM111.671 6H114.687L114.921 7.664C115.285 7.21333 115.692 6.84933 116.143 6.572C116.611 6.27733 117.122 6.078 117.677 5.974C118.231 5.85267 118.812 5.86133 119.419 6V9.12C118.951 8.964 118.457 8.92067 117.937 8.99C117.434 9.05933 116.957 9.24133 116.507 9.536C116.073 9.83067 115.709 10.2553 115.415 10.81C115.137 11.3473 114.999 12.032 114.999 12.864V19H111.671V6Z" fill="white"/>
<path d="M123.446 19.182C122.804 19.182 122.276 18.9827 121.86 18.584C121.461 18.168 121.262 17.674 121.262 17.102C121.262 16.5127 121.461 16.0187 121.86 15.62C122.276 15.204 122.804 14.996 123.446 14.996C124.07 14.996 124.581 15.204 124.98 15.62C125.396 16.0187 125.604 16.5127 125.604 17.102C125.604 17.674 125.396 18.168 124.98 18.584C124.581 18.9827 124.07 19.182 123.446 19.182Z" fill="#E04FD9"/>
</svg>
