<svg width="27" height="14" viewBox="0 0 27 14" fill="none" xmlns="http://www.w3.org/2000/svg">
<path d="M0 0.182001H3.016L3.25 1.508C3.666 1.04 4.16867 0.676 4.758 0.416C5.36467 0.138667 6.01467 0 6.708 0C7.73067 0 8.59733 0.216667 9.308 0.65C10.036 1.08333 10.5907 1.716 10.972 2.548C11.3707 3.36267 11.57 4.37667 11.57 5.59V13.182H8.216V6.032C8.216 5.02667 8.01667 4.27267 7.618 3.77C7.21933 3.26733 6.62133 3.016 5.824 3.016C5.00933 3.016 4.38533 3.276 3.952 3.796C3.536 4.29867 3.328 5.05267 3.328 6.058V13.182H0V0.182001Z" fill="white"/>
<path d="M14.5742 0.182001H17.5902L17.8242 1.846C18.1882 1.39533 18.5956 1.03133 19.0462 0.754C19.5142 0.459333 20.0256 0.26 20.5802 0.156C21.1349 0.0346667 21.7156 0.0433338 22.3222 0.182001V3.302C21.8542 3.146 21.3602 3.10267 20.8402 3.172C20.3376 3.24133 19.8609 3.42333 19.4102 3.718C18.9769 4.01267 18.6129 4.43733 18.3182 4.992C18.0409 5.52933 17.9022 6.214 17.9022 7.046V13.182H14.5742V0.182001Z" fill="white"/>
<path d="M23.974 13.364C23.3327 13.364 22.804 13.1647 22.388 12.766C21.9893 12.35 21.79 11.856 21.79 11.284C21.79 10.6947 21.9893 10.2007 22.388 9.802C22.804 9.386 23.3327 9.178 23.974 9.178C24.598 9.178 25.1093 9.386 25.508 9.802C25.924 10.2007 26.132 10.6947 26.132 11.284C26.132 11.856 25.924 12.35 25.508 12.766C25.1093 13.1647 24.598 13.364 23.974 13.364Z" fill="#E04FD9"/>
</svg>
